<svg version="1.2" xmlns="http://www.w3.org/2000/svg" xmlns:xlink="http://www.w3.org/1999/xlink" overflow="visible" preserveAspectRatio="none" viewBox="0 0 98 98" xml:space="preserve" y="0px" x="0px" width="80" height="80" icon="icon-support-mc" color="#0d819c" class="support-mc myphoenix-icon jss12 jss277 icon-support-mc-fill jss237   " aria-hidden="true" title="" id="icon-support-mc"><g transform="translate(1, 1)"><style type="text/css">
	.st0_1592265303973{fill:none;}
	.st1_1592265303973{fill:#001823;}
	.st2_1592265303973{fill:#DB3725;}
</style><desc>Created with Sketch.</desc><g><path d="M69.6,64.5l-12.3-3.4l-6,8.4c-0.7,1.4-2,2.3-3.4,2.3c-1.4,0-2.7-0.8-3.4-2.3l-6.1-8.7l-12.3,3.6   c-5.1,1.5-8.6,6.9-8.6,13.2l0.3,3.8c0,2.6,1.7,4.7,3.7,4.7h52.6c2,0,3.7-2.1,3.7-4.7c0,0,0-0.1,0-0.1l0.4-3.7   C78.3,71.4,74.8,66,69.6,64.5z" class="st0_1592265303973" vector-effect="non-scaling-stroke"></path><ellipse ry="12.7" rx="10.8" cy="30.4" cx="48" class="st0_1592265303973" vector-effect="non-scaling-stroke"></ellipse><g><path d="M70.2,62.6l-12.9-3.6c-0.4-0.1-0.8,0-1.1,0.4l-6.4,9c0,0-0.1,0.1-0.1,0.1c-0.4,0.8-1,1.2-1.7,1.2    s-1.3-0.5-1.7-1.2c0,0-0.1-0.1-0.1-0.1l-6.5-9.3c-0.2-0.3-0.7-0.5-1.1-0.4l-12.9,3.7c-5.9,1.7-10,7.9-10,15.1c0,0,0,0.1,0,0.1    l0.3,3.8c0,3.6,2.5,6.6,5.7,6.6h52.6c3.1,0,5.7-2.9,5.7-6.6l0.4-3.7c0,0,0-0.1,0-0.1C80.3,70.5,76.1,64.3,70.2,62.6z M78,81.4    c0,0,0,0.1,0,0.1c0,2.6-1.7,4.7-3.7,4.7H21.7c-2.1,0-3.7-2.1-3.7-4.7l-0.3-3.8c0-6.3,3.6-11.8,8.6-13.2l12.3-3.6l6.1,8.7    c0.7,1.4,2,2.3,3.4,2.3c1.4,0,2.7-0.8,3.4-2.3l6-8.4l12.3,3.4c5.1,1.4,8.7,6.9,8.7,13.2L78,81.4z" class="st1_1592265303973" vector-effect="non-scaling-stroke"></path><path d="M48,45.1c7,0,12.7-6.6,12.7-14.7S55,15.7,48,15.7c-7,0-12.7,6.6-12.7,14.7S41,45.1,48,45.1z M48,17.6    c5.9,0,10.8,5.7,10.8,12.7S53.9,43.1,48,43.1s-10.8-5.7-10.8-12.7S42.1,17.6,48,17.6z" class="st1_1592265303973" vector-effect="non-scaling-stroke"></path></g><path d="M47.9,8.3c-8.5,0-15.8,5.9-18.7,14.2c-4.2,0-7.6,3.5-7.6,7.9c0,4.3,3.4,7.7,7.5,7.8   c2.4,7.2,8.1,12.7,15.1,14.2c0.2,2,1.9,3.5,3.9,3.5c2.2,0,3.9-1.8,3.9-3.9c0-2.2-1.8-3.9-3.9-3.9c-1.6,0-3,1-3.6,2.4   c-8.3-1.8-14.6-10-14.6-19.9c0-11.2,8.1-20.3,18.1-20.3c10,0,18.1,9.1,18.1,20.3c0,0.5,0.4,1,1,1s1-0.4,1-1   C67.9,18.3,58.9,8.3,47.9,8.3z" class="st2_1592265303973" vector-effect="non-scaling-stroke"></path></g></g></svg>