<svg version="1.2" xmlns="http://www.w3.org/2000/svg" xmlns:xlink="http://www.w3.org/1999/xlink" overflow="visible" preserveAspectRatio="none" viewBox="0 0 38.79999923706055 47.400001525878906" xml:space="preserve" y="0px" x="0px" width="48" height="61" icon="icon-text-sms-mc" color="#0d819c" class="text-sms-mc myphoenix-icon jss12 jss275 icon-text-sms-mc-fill jss236   " aria-hidden="true" title="" id="icon-text-sms-mc"><g transform="translate(1, 1)"><style type="text/css">
	.st0_1591071866384{fill:#001823;}
	.st1_1591071866384{fill:#DB3725;}
</style><g><g><path d="M22.2,0.4H5.5c-2.7,0-5,2.2-5,5v2.3v29.1V39c0,2.7,2.2,5,5,5h16.7c2.7,0,5-2.2,5-5v-2.3v-5.4    c-0.1,0-0.1,0-0.2,0h-0.8v4.9H1.5V8.2h24.7v1.3h0.8c0.1,0,0.1,0,0.2,0V7.7V5.4C27.2,2.7,25,0.4,22.2,0.4z M26.2,37.3V39    c0,2.2-1.8,4-4,4H5.5c-2.2,0-4-1.8-4-4v-1.8H26.2z M1.5,7.2V5.4c0-2.2,1.8-4,4-4h16.7c2.2,0,4,1.8,4,4v1.8H1.5z" class="st0_1591071866384" vector-effect="non-scaling-stroke"></path><path d="M16.8,3.8H11c-0.3,0-0.5,0.2-0.5,0.5s0.2,0.5,0.5,0.5h5.8c0.3,0,0.5-0.2,0.5-0.5S17.1,3.8,16.8,3.8z" class="st0_1591071866384" vector-effect="non-scaling-stroke"></path><path d="M13.9,41.5c0.8,0,1.4-0.6,1.4-1.4c0-0.8-0.6-1.4-1.4-1.4c-0.8,0-1.4,0.6-1.4,1.4    C12.5,40.9,13.1,41.5,13.9,41.5z" class="st0_1591071866384" vector-effect="non-scaling-stroke"></path></g><g><path d="M27.2,11c-0.1,0-0.1,0-0.2,0h-0.8h-6.1c-5.1,0-9.2,4.3-9.2,9.5c0,3.7,2.2,7.1,5.5,8.7l-1.1,4.7    c0,0.2,0,0.4,0.2,0.5c0.1,0.1,0.2,0.1,0.3,0.1c0.1,0,0.2,0,0.3-0.1l7.1-4.4h3.1h0.8c0.1,0,0.1,0,0.2,0c5-0.1,9-4.3,9-9.5    C36.2,15.3,32.2,11,27.2,11z M26.2,28.9H23c-0.1,0-0.2,0-0.3,0.1l-6.2,3.9l1-4c0.1-0.2-0.1-0.5-0.3-0.6c-3.2-1.3-5.3-4.4-5.3-7.9    c0-4.7,3.7-8.5,8.2-8.5h6.1h0.8c0.1,0,0.1,0,0.2,0c4.5,0.1,8.1,3.9,8.1,8.5c0,4.6-3.6,8.4-8.1,8.5c-0.1,0-0.1,0-0.2,0H26.2z" class="st1_1591071866384" vector-effect="non-scaling-stroke"></path><path d="M15.6,19.9h10.6h1h4.3c0.3,0,0.5-0.2,0.5-0.5c0-0.3-0.2-0.5-0.5-0.5h-4.3h-1H15.6c-0.3,0-0.5,0.2-0.5,0.5    C15.1,19.7,15.4,19.9,15.6,19.9z" class="st1_1591071866384" vector-effect="non-scaling-stroke"></path><path d="M27.8,22.7c0.3,0,0.5-0.2,0.5-0.5c0-0.3-0.2-0.5-0.5-0.5h-0.6h-1H15.6c-0.3,0-0.5,0.2-0.5,0.5    c0,0.3,0.2,0.5,0.5,0.5h10.6h1H27.8z" class="st1_1591071866384" vector-effect="non-scaling-stroke"></path></g></g></g></svg>