<svg version="1.2" xmlns="http://www.w3.org/2000/svg" xmlns:xlink="http://www.w3.org/1999/xlink" overflow="visible" preserveAspectRatio="none" viewBox="0 0 50 34.20000076293945" xml:space="preserve" y="0px" x="0px" width="96" height="64" icon="icon-chat-mc" color="#0d819c" class="chat-mc myphoenix-icon jss12 jss230 icon-chat-mc-fill jss185   " aria-hidden="true" title="" id="icon-chat-mc"><g transform="translate(1, 1)"><style type="text/css">
	.st0_1591072065675{fill:#DB3725;}
	.st1_1591072065675{fill-rule:evenodd;clip-rule:evenodd;fill:#001823;}
</style><g transform="translate(1, 1)"><desc>Created with Sketch.</desc><g><g transform="translate(4.000000, 11.000000)"><path d="M15.2-11.5H6.6C0.3-11.5-4.8-6.3-4.8,0.2C-4.8,4.8-2,9,2.1,10.9l-1.4,5.9c-0.1,0.2,0,0.5,0.2,0.6     c0.1,0.1,0.2,0.1,0.3,0.1c0.1,0,0.2,0,0.3-0.1l8.8-5.5h4.9c6.3,0,11.3-5.2,11.3-11.7C26.5-6.3,21.4-11.5,15.2-11.5z M15.2,10.7     h-5c-0.1,0-0.2,0-0.3,0.1l-7.8,4.8l1.2-5C3.4,10.4,3.2,10.1,3,10C-1,8.4-3.6,4.5-3.6,0.2c0-5.8,4.6-10.5,10.2-10.5h8.6     c5.6,0,10.2,4.7,10.2,10.5C25.4,6,20.8,10.7,15.2,10.7z" class="st0_1591072065675" vector-effect="non-scaling-stroke"></path><g><path d="M42.8,8c0-4.4-3.7-8-8.2-8h-2.9c-0.3,0-0.6,0.3-0.6,0.6c0,0.3,0.3,0.6,0.6,0.6h2.9c3.9,0,7.1,3.1,7.1,6.8      c0,2.8-1.8,5.3-4.5,6.4c-0.3,0.1-0.4,0.4-0.4,0.7l0.7,2.9l-5.2-3c-0.1-0.1-0.2-0.1-0.3-0.1h-3.6c-1.6,0-3.2-0.5-4.4-1.5      c-0.3-0.2-0.6-0.2-0.8,0.1c-0.2,0.3-0.2,0.6,0.1,0.8c1.5,1.1,3.3,1.8,5.1,1.8h3.4l6.2,3.6c0.1,0.1,0.2,0.1,0.3,0.1      c0.1,0,0.2,0,0.4-0.1c0.2-0.1,0.3-0.4,0.2-0.6l-1-3.7C40.8,14,42.8,11.1,42.8,8z" class="st1_1591072065675" vector-effect="non-scaling-stroke"></path><path d="M20.7-1.7H1c-0.3,0-0.6,0.3-0.6,0.6c0,0.3,0.3,0.6,0.6,0.6h19.7c0.3,0,0.6-0.3,0.6-0.6      C21.3-1.4,21.1-1.7,20.7-1.7z" class="st1_1591072065675" vector-effect="non-scaling-stroke"></path><path d="M16.1,1.8H1C0.7,1.8,0.5,2,0.5,2.4S0.7,2.9,1,2.9h15.1c0.3,0,0.6-0.3,0.6-0.6S16.4,1.8,16.1,1.8z" class="st1_1591072065675" vector-effect="non-scaling-stroke"></path><path d="M28.8,8.7H37c0.3,0,0.6-0.3,0.6-0.6c0-0.3-0.3-0.6-0.6-0.6h-8.1c-0.3,0-0.6,0.3-0.6,0.6      C28.3,8.5,28.5,8.7,28.8,8.7z" class="st1_1591072065675" vector-effect="non-scaling-stroke"></path></g></g></g></g></g></svg>