<svg width="41" height="41" viewBox="0 0 41 41" fill="none" xmlns="http://www.w3.org/2000/svg" icon="icon-go-to-class-easel-mc" color="" class="go-to-class-easel-mc myphoenix-icon jss12 jss14 icon-go-to-class-easel-mc-fill  " title="" id="icon-go-to-class-easel-mc" aria-hidden="true"><path fill-rule="evenodd" clip-rule="evenodd" d="M33.4481 35.6013L27.167 19.4348L33.4481 35.6013Z" fill="white"></path><path fill-rule="evenodd" clip-rule="evenodd" d="M20.606 36.4245L27.1649 19.4346L20.606 36.4245Z" fill="white"></path><path fill-rule="evenodd" clip-rule="evenodd" d="M27.1631 19.4351L27.2108 40.06L27.1631 19.4351Z" fill="white"></path><path d="M14.5117 17.7294V5.08032C14.5117 2.59504 16.5264 0.580322 19.0117 0.580322H35.6271C38.1124 0.580322 40.1271 2.59504 40.1271 5.08032V22.2085C40.1271 24.6938 38.1124 26.7085 35.6271 26.7085H19.0117C16.7851 26.7085 14.9363 25.0914 14.5755 22.9676L15.5214 22.471C15.6557 24.2814 17.167 25.7085 19.0117 25.7085H35.6271C37.5601 25.7085 39.1271 24.1415 39.1271 22.2085V5.08032C39.1271 3.14733 37.5601 1.58032 35.6271 1.58032H19.0117C17.0787 1.58032 15.5117 3.14733 15.5117 5.08032V17.2511L14.5117 17.7294ZM14.5117 19.1098L15.5117 18.6315V21.0674L14.5117 21.5924V19.1098Z" fill="#001823"></path><path d="M20.6528 35.8719L24.5723 26.4065" stroke="#001823" stroke-linecap="round" stroke-linejoin="round"></path><path d="M27.5757 39.862V26.2085" stroke="#001823" stroke-linecap="round" stroke-linejoin="round"></path><path d="M33.961 35.6013L30.3442 26.4065" stroke="#001823" stroke-linecap="round" stroke-linejoin="round"></path><path d="M19.8818 7.27222H34.2768" stroke="#001823"></path><path d="M19.8818 11.2573H34.2768" stroke="#001823"></path><path d="M27.6475 15.4915L34.2781 15.4131" stroke="#001823"></path><path fill-rule="evenodd" clip-rule="evenodd" d="M24.5726 16.3107L2.92132 27.6777C2.83948 27.7203 2.75253 27.7407 2.66558 27.7407C2.46269 27.7407 2.26491 27.6282 2.16773 27.4338L1.44483 25.988C1.30502 25.7084 1.42437 25.3674 1.70739 25.2344L23.7116 14.7097L24.5726 16.3107Z" fill="#DB3725"></path></svg>