<svg width="33" height="24" viewBox="0 0 33 24" fill="none" xmlns="http://www.w3.org/2000/svg" icon="icon-email" color="" class="email myphoenix-icon jss12 jss105 icon-email-fill  " title="" id="icon-email" aria-hidden="true"><path d="M3.0083 0H29.0083C30.6652 0 32.0083 1.34312 32.0083 3V21C32.0083 22.6569 30.6652 24 29.0083 24H3.0083C1.35143 24 0.00830078 22.6569 0.00830078 21V3C0.00830078 1.34312 1.35143 0 3.0083 0ZM3.0083 3V5.55031C4.40968 6.6915 6.6438 8.466 11.42 12.2059C12.4726 13.0339 14.5576 15.0229 16.0083 14.9998C17.4588 15.0232 19.5445 13.0336 20.5966 12.2059C25.3721 8.46656 27.6067 6.69169 29.0083 5.55031V3H3.0083ZM29.0083 21V9.39987C27.5762 10.5406 25.5452 12.1413 22.4497 14.5653C21.0836 15.6406 18.6913 18.0144 16.0083 17.9999C13.3385 18.0144 10.9765 15.675 9.56749 14.5658C6.47199 12.1418 4.44049 10.5407 3.0083 9.39994V21H29.0083Z" fill="black"></path></svg>