<svg width="36" height="40" viewBox="0 0 36 40" fill="none" xmlns="http://www.w3.org/2000/svg" icon="icon-library-mc" color="" class="library-mc myphoenix-icon jss12 jss20 icon-library-mc-fill  " title="" id="icon-library-mc" aria-hidden="true"><path d="M5.27058 29.2285L5.23584 5.34277" stroke="#001823" stroke-linecap="round"></path><path d="M1.53142 38.9964L1.45312 5.85512L4.91625 1.0629L32.3445 1.00001C33.6646 0.996415 34.737 2.04938 34.7407 3.3539L34.808 31.1998C34.8098 32.5026 33.7429 33.5627 32.4228 33.5663L5.66095 33.6274L1.52414 39L31.4541 38.9299C31.4541 38.9299 34.2946 39.0791 35.1103 37.1061" stroke="#001823" stroke-linecap="round" stroke-linejoin="round"></path><path d="M26.1465 11.8572L26.1719 22.8311L24.1645 24.8656L16.2727 24.8857L14.2544 22.8604L14.229 11.8865" stroke="#DB3725"></path><path d="M11.4419 11.8648L16.8705 11.8496" stroke="#DB3725"></path><path d="M23.2759 11.8658L28.7045 11.8484" stroke="#DB3725"></path><path fill-rule="evenodd" clip-rule="evenodd" d="M6.74378 35.5572L5.7959 37.0924C5.7959 37.0924 28.7411 37.0272 29.9379 37.0229C31.6395 37.0185 31.853 35.479 31.853 35.479L6.74378 35.5572Z" fill="#001823"></path></svg>