<svg width="38" height="42" viewBox="0 0 38 42" fill="none" xmlns="http://www.w3.org/2000/svg" icon="icon-office-365-mc" color="" class="office-365-mc myphoenix-icon jss12 jss17 icon-office-365-mc-fill  " title="" id="icon-office-365-mc" aria-hidden="true"><path fill-rule="evenodd" clip-rule="evenodd" d="M31.1704 41L3.66856 37.6646C2.4271 37.6646 1.42041 36.5507 1.42041 35.1796V5.65878C1.42041 4.2877 2.4271 3.1759 3.66856 3.1759L31.1704 1C32.4118 1 33.4204 2.1118 33.4204 3.48496V38.515C33.4204 39.8882 32.4118 41 31.1704 41Z" stroke="#001823"></path><path fill-rule="evenodd" clip-rule="evenodd" d="M33.4204 40H35.115C36.3881 40 37.4204 38.6695 37.4204 37.0286V4.97135C37.4204 3.33049 36.3881 2 35.115 2H33.5019L33.4204 40Z" fill="#001823"></path><path fill-rule="evenodd" clip-rule="evenodd" d="M10.049 28.4747C13.3595 29.0476 16.5171 29.5955 19.7158 30.1497V12.6094C18.9079 12.8419 18.1362 13.0598 17.3661 13.2923C16.03 13.6929 14.7005 14.1308 13.3595 14.4982C12.9515 14.6082 12.8528 14.824 12.856 15.3118C12.8692 18.7841 12.8626 22.2544 12.8626 25.7267V26.5403C11.724 27.1007 10.615 27.6466 9.4303 28.2277V27.4785C9.4303 23.151 9.43853 18.8235 9.42043 14.4961C9.41878 13.9357 9.54877 13.6825 9.97822 13.4832C13.0749 12.0449 16.1567 10.5567 19.2534 9.11425C19.5282 8.98557 19.8869 8.96274 20.1682 9.06029C21.9042 9.66219 23.6302 10.3118 25.4056 10.9635V11.7128C25.4056 17.9103 25.3957 24.1078 25.4204 30.3074C25.422 30.9384 25.2427 31.1584 24.805 31.3037C23.2172 31.8329 21.6392 32.4037 20.0547 32.9413C19.8787 33.0014 19.6598 33.0305 19.4969 32.9537C16.4299 31.5403 13.3678 30.1102 10.3057 28.6802C10.2579 28.6574 10.2201 28.6117 10.049 28.4747Z" fill="#DB3725"></path></svg>