<svg width="41" height="40" viewBox="0 0 41 40" fill="none" xmlns="http://www.w3.org/2000/svg" icon="icon-phoenix-link-mc" color="" class="phoenix-link-mc myphoenix-icon jss12 jss23 icon-phoenix-link-mc-fill  " title="" id="icon-phoenix-link-mc" aria-hidden="true"><path fill-rule="evenodd" clip-rule="evenodd" d="M23.98 2.49376C23.9841 3.87479 22.8672 4.99583 21.4862 4.99999C20.1052 5.00415 18.9841 3.88519 18.98 2.50624C18.9779 1.12521 20.0927 0.00209144 21.4737 1.15817e-05C22.8548 -0.00414813 23.9779 1.11274 23.98 2.49376Z" fill="#001823"></path><path fill-rule="evenodd" clip-rule="evenodd" d="M5.97997 20.4938C5.98413 21.8748 4.86724 22.9958 3.48622 23C2.10519 23.0041 0.984143 21.8852 0.979983 20.5062C0.977904 19.1252 2.09271 18.0021 3.47374 18C4.85476 17.9959 5.97789 19.1127 5.97997 20.4938Z" fill="#001823"></path><path fill-rule="evenodd" clip-rule="evenodd" d="M9.97997 6.49376C9.98413 7.87479 8.86724 8.99583 7.48622 8.99999C6.10519 9.00415 4.98414 7.88519 4.97998 6.50624C4.9779 5.12521 6.09271 4.00209 7.47374 4.00001C8.85476 3.99585 9.97789 5.11274 9.97997 6.49376Z" fill="#001823"></path><path fill-rule="evenodd" clip-rule="evenodd" d="M36.98 6.49376C36.9841 7.87479 35.8672 8.99583 34.4862 8.99999C33.1052 9.00415 31.9841 7.88519 31.98 6.50624C31.9779 5.12521 33.0927 4.00209 34.4737 4.00001C35.8548 3.99585 36.9779 5.11274 36.98 6.49376Z" fill="#001823"></path><path fill-rule="evenodd" clip-rule="evenodd" d="M36.98 33.4938C36.9841 34.8748 35.8672 35.9958 34.4862 36C33.1052 36.0041 31.9841 34.8852 31.98 33.5062C31.9779 32.1252 33.0927 31.0021 34.4737 31C35.8548 30.9959 36.9779 32.1127 36.98 33.4938Z" fill="#001823"></path><path fill-rule="evenodd" clip-rule="evenodd" d="M23.9496 21.2136C23.4991 19.3909 22.3678 18.4796 20.5556 18.4796C18.7435 18.4796 17.6829 19.5419 17.3738 21.6667L12.3022 20.3932C11.995 20.2189 11.993 19.763 12.3002 19.5865L19.9488 15.162C20.319 14.9477 20.7686 14.9456 21.1409 15.1578L28.8099 19.5466C29.117 19.721 29.117 20.1769 28.8119 20.3533L23.9496 21.2136Z" fill="#DB3725"></path><path fill-rule="evenodd" clip-rule="evenodd" d="M34.98 20.395L6.97998 20.4384L34.98 20.395Z" fill="white"></path><path fill-rule="evenodd" clip-rule="evenodd" d="M23.9495 21.6599C23.9537 23.5008 22.4395 24.9961 20.5639 24.9999C18.6905 25.0037 17.1679 23.5142 17.1616 21.6733C17.1575 19.8323 18.6738 18.3371 20.5472 18.3333C22.4227 18.3294 23.9453 19.819 23.9495 21.6599Z" stroke="#001823"></path><path fill-rule="evenodd" clip-rule="evenodd" d="M26.2842 22.0827L25.8617 22.0834L25.8574 20.4175L26.28 20.4167L26.2842 22.0827Z" fill="#DB3725"></path><path fill-rule="evenodd" clip-rule="evenodd" d="M26.6616 22.4983C26.6616 22.8183 26.3985 23.0799 26.0727 23.0799C25.7469 23.0816 25.4822 22.8216 25.4805 22.5016C25.4805 22.1816 25.7435 21.9199 26.0693 21.9199C26.3968 21.9199 26.6616 22.1783 26.6616 22.4983Z" fill="#DB3725"></path><path fill-rule="evenodd" clip-rule="evenodd" d="M26.2602 22.9667L26.0888 22.9634H26.0685H26.0464L25.875 22.9667L25.3608 24.5367L26.0481 24.535H26.0939L26.7812 24.5334L26.2602 22.9667Z" fill="#DB3725"></path><path fill-rule="evenodd" clip-rule="evenodd" d="M9.97997 33.4938C9.98413 34.8748 8.86724 35.9958 7.48622 36C6.10519 36.0041 4.98414 34.8852 4.97998 33.5062C4.9779 32.1252 6.09271 31.0021 7.47374 31C8.85476 30.9959 9.97789 32.1127 9.97997 33.4938Z" fill="#001823"></path><path fill-rule="evenodd" clip-rule="evenodd" d="M40.98 20.4938C40.9841 21.8748 39.8672 22.9958 38.4862 23C37.1052 23.0041 35.9841 21.8852 35.98 20.5062C35.9779 19.1252 37.0927 18.0021 38.4737 18C39.8548 17.9959 40.9779 19.1127 40.98 20.4938Z" fill="#001823"></path><path fill-rule="evenodd" clip-rule="evenodd" d="M23.98 37.4938C23.9841 38.8748 22.8672 39.9958 21.4862 40C20.1052 40.0041 18.9841 38.8852 18.98 37.5062C18.9779 36.1252 20.0927 35.0021 21.4737 35C22.8548 34.9959 23.9779 36.1127 23.98 37.4938Z" fill="#001823"></path><path d="M21.98 4H20.98V10H21.98V4Z" fill="#001823"></path><path fill-rule="evenodd" clip-rule="evenodd" d="M33.7051 6.56812L34.4122 7.27522L28.7553 12.9321L28.0482 12.225L33.7051 6.56812Z" fill="#001823"></path><path fill-rule="evenodd" clip-rule="evenodd" d="M8.25488 6.56812L7.54778 7.27522L13.2046 12.9321L13.9117 12.225L8.25488 6.56812Z" fill="#001823"></path><path fill-rule="evenodd" clip-rule="evenodd" d="M33.7051 33.6819L34.4122 32.9748L28.7553 27.3179L28.0482 28.025L33.7051 33.6819Z" fill="#001823"></path><path fill-rule="evenodd" clip-rule="evenodd" d="M12.9551 27.3181L13.6622 28.0252L8.00533 33.6821L7.29822 32.975L12.9551 27.3181Z" fill="#001823"></path><path fill-rule="evenodd" clip-rule="evenodd" d="M38.48 19.5833V20.4166H32.48V19.5833H38.48Z" fill="#001823"></path><path fill-rule="evenodd" clip-rule="evenodd" d="M9.47998 19.5833V20.4166H3.47998V19.5833H9.47998Z" fill="#001823"></path><path d="M21.98 30H20.98V36H21.98V30Z" fill="#001823"></path></svg>