<svg version="1.2" xmlns="http://www.w3.org/2000/svg" xmlns:xlink="http://www.w3.org/1999/xlink" overflow="visible" preserveAspectRatio="none" viewBox="0 0 50 26.5" xml:space="preserve" y="0px" x="0px" width="78" height="40" icon="icon-email-mc" color="#0d819c" class="email-mc myphoenix-icon jss12 jss279 icon-email-mc-fill jss238 jss278   " aria-hidden="true" title="" id="icon-email-mc"><g transform="translate(1, 1)"><style type="text/css">
	.st0_1591072020672{fill:#DB3725;}
	.st1_1591072020672{fill:#001823;}
</style><g><path d="M45,1.3c-0.1-0.1-0.2-0.2-0.3-0.2c-0.5-0.4-1.1-0.8-1.8-0.8H5.1c-0.7,0-1.3,0.5-1.8,0.8C3.2,1.2,3.1,1.2,3,1.3   l-1.4,1l1.8-0.1c1.3-0.1,2.6,0.3,3.8,1L24,14.5L40.8,3.2c1.2-0.7,2.5-1.1,3.8-1l2,0.2L45,1.3z" class="st0_1591072020672" vector-effect="non-scaling-stroke"></path><path d="M45.4,0.8C44.7,0.3,43.8,0,42.9,0h-0.3H5.3H5.1C4.2,0,3.3,0.3,2.6,0.8C1.1,1.7,0.1,3.3,0.1,5.3v14   c0,2.9,2.4,5.3,5.3,5.3h37.3c2.9,0,5.3-2.4,5.3-5.3v-14C47.9,3.3,46.9,1.7,45.4,0.8z M3.3,1.7c0.5-0.4,1.1-0.6,1.8-0.6h0.3h37.3   h0.3c0.7,0,1.3,0.2,1.8,0.6c0,0,0,0,0,0c-1.3-0.1-2.8,0.3-4.1,1.1L31,9.2l-1,0.7l-6,4l-6-4l-1-0.7L7.4,2.8C6.2,2.1,4.9,1.7,3.7,1.7   C3.6,1.7,3.4,1.7,3.3,1.7C3.3,1.7,3.3,1.7,3.3,1.7z M1.2,5.3c0-0.7,0.2-1.4,0.6-2c0,0,0.1-0.1,0.1-0.1c1-0.6,3.1-0.5,4.9,0.7   l9.3,6.2l-14,11.8c-0.5-0.7-0.9-1.6-0.9-2.5V5.3z M42.7,23.3H5.3c-0.9,0-1.7-0.3-2.4-0.8l14.1-11.9l6.6,4.4   c0.1,0.1,0.2,0.1,0.3,0.1s0.2,0,0.3-0.1l6.6-4.4L45,22.6C44.4,23.1,43.6,23.3,42.7,23.3z M46.8,19.3c0,0.9-0.3,1.8-0.9,2.5L31.9,10   l9.3-6.2c1.8-1.1,3.7-1,4.7-0.6c0.1,0,0.2,0,0.2,0c0.3,0.6,0.6,1.3,0.6,2V19.3z" class="st1_1591072020672" vector-effect="non-scaling-stroke"></path></g><desc>Created with Sketch.</desc></g></svg>